<?xml version="1.0" encoding="UTF-8" standalone="no"?>
<!-- Created with Inkscape (http://www.inkscape.org/) -->

<svg
   version="1.1"
   id="svg1"
   width="1254"
   height="1254"
   viewBox="0 0 1254 1254"
   xmlns="http://www.w3.org/2000/svg"
   xmlns:svg="http://www.w3.org/2000/svg">
  <defs
     id="defs1" />
  <g
     id="g1">
    <path
       style="fill:#0267cb;stroke:none"
       d="m 768,623 c 14.59369,-9.2171 28.69946,-15.73114 38.66669,-31 8.39898,-12.86646 8.97314,-29.17853 15.5,-43 13.11255,-27.76764 40.07824,-47.48761 67.83331,-58.66669 27.0744,-10.9049 55.55951,-18.01416 82,-30.5 41.5974,-19.64325 81.0526,-41.6206 119,-68.5 14.7992,-10.48279 29.1044,-22.61682 42,-35.33331 3.8245,-3.7713 11.1825,-10.32623 16.8334,-5.66669 5.755,4.74549 3.2922,18.38971 2.3332,24.66669 -3.3962,22.22913 -9.1999,41.52087 -20.8332,61 -32.4862,54.39581 -92.6142,84.60913 -149.3334,106.66669 -14.98914,5.82916 -30.53564,10.7044 -46,15 -9.73346,2.70373 -21.2464,4.33355 -29,11.33331 -15.05872,13.59467 -14.41364,35.20667 -21.33331,53 -9.98499,25.67554 -25.1131,49.44824 -43.66669,70 -17.29041,19.15253 -40.07019,35.36841 -63,46.83331 -7.6969,3.84845 -15.75671,7.41895 -24,10.16669 -3.21564,1.0719 -8.66315,1.82275 -10.5,5 -1.19775,2.07178 -1.21112,5.65698 -1.66669,8 -1.10205,5.6676 -1.98852,11.34521 -3.16662,17 -4.17475,20.0387 -5.51691,41.55078 -12,61 -5.99201,17.97601 -19.86689,30.73352 -33.66669,43 -31.83881,28.30115 -69.35742,45 -112,45 v -1 c 5.16541,-1.49524 10.69574,-1.22827 16,-2.33337 8.66418,-1.805 17.7561,-4.67951 26,-8 22.93164,-9.23633 44.41815,-23.14942 63,-39.66663 9.87402,-8.77698 19.80426,-17.5094 26.66669,-29 3.75409,-6.28589 6.4967,-13.78406 8,-21 1.16809,-5.60693 1.1297,-11.7663 3.33331,-17 -6.16882,3.57141 -10.67847,10.1958 -16,15 l -20,18 c -21.54028,19.44611 -46.17102,36.86047 -73,47.66663 -17.20294,6.92895 -38.31439,12.15002 -57,10.33337 -49.50046,-4.8125 -98.7254,-38.87378 -108.66666,-90 -3.35522,-17.25537 2.68085,-36.93011 6,-54 1.27396,-6.55176 5.68363,-17.69122 3.66666,-24.16669 -2.93759,-9.43115 -16.02737,-16.53857 -23,-22.83331 -13.6373,-12.31146 -25.94641,-26.15656 -36.66666,-41 -11.54928,-15.99133 -20.7023,-35.8092 -25.5,-55 -3.48129,-13.92523 -3.09707,-29.638 -11.16668,-42 C 356.27039,560.66949 344.3501,557.09723 332,553.66669 c -17.97751,-4.99372 -35.7623,-12.05707 -53,-19 C 225.31648,513.04425 166.67126,481.63568 135.83333,430 123.24493,408.92175 117.36034,388.27777 115,364 c -0.59894,-6.16052 -2.98371,-18.2724 3,-22.66669 7.80899,-5.73474 18.82072,8.82782 24,13 21.84282,17.59565 43.87112,33.92304 68,48.33338 41.80466,24.96673 84.84833,45.81396 130,64 29.81854,12.01019 62.39374,18.11938 87,40.33331 12.974,11.71259 22.97849,26.12268 27.66666,43 2.77853,10.00275 2.57815,19.9751 4.66668,30 2.96216,14.21844 11.87241,25.9303 23.66666,34 0.93799,-11.88116 4.38199,-24.25037 6.66666,-36 4.6549,-23.93945 8.34311,-48.05042 13,-72 1.87014,-9.61786 3.12872,-19.3764 5,-29 1.06842,-5.49463 1.50372,-11.15466 4.66665,-16 8.53662,-13.07739 23.3404,-15 37.66669,-15 0,-10.60022 2.65033,-21.63025 4.66669,-32 4.17279,-21.46014 8.32501,-43.34033 11.33331,-65 1.06964,-7.70135 2.92999,-15.2959 4,-23 0.66809,-4.81036 1.05475,-10.27625 5,-13.66669 6.17926,-5.3103 17.84821,-10.54077 26,-11.33331 10.75732,-1.0459 23.50323,3.47986 34,5.66669 31.21594,6.50335 62.77722,11.49524 94,18 11.26587,2.34704 22.6839,4.13293 34,6.33331 5.02264,0.97662 11.49841,1.34875 14.66669,6 2.43298,3.57178 0.75598,7.19617 0.33331,11 -0.9325,8.39203 -2.83722,16.62793 -4,25 -3.48816,25.11456 -9.51221,49.888 -13,75 -0.87775,6.31976 -2.11511,12.7348 -3.33331,19 -0.47351,2.4353 -1.80646,5.51941 -1.66669,8 0.30035,5.33154 11.01721,5.72913 15,7.33331 8.67389,3.49366 14.75568,10.49378 16.66669,19.66669 2.55932,12.28467 -2.98859,25.91779 -4.66669,38 -3.85486,27.75458 -9.92267,55.43787 -15,83 M 583,319 v 1 l 137,28.16669 26,4.83331 13,-6 8,-6 -41,-7.66669 -73,-13.66662 -31,-6 -19,-3.5 L 583,319 m 11,64 -5,29 31,6 4,-29 -30,-6 m 78,17 -5,28 32,7 4,-29 -31,-6 m 82,84 c -0.0927,3.51978 -0.35724,9.01483 -2.33331,12 -5.16712,7.8056 -19.39234,13.90167 -28.66669,13 -11.0462,-1.07397 -22.18341,-5.263 -33,-7.66669 -34.68756,-7.70837 -69.13403,-17.3872 -104,-24.16662 -9.07385,-1.76435 -17.94061,-4.40509 -27,-6.16669 -3.25653,-0.63324 -9.77124,-1.07471 -11.83331,-4 -2.2071,-3.13098 0.8537,-11.61597 1.83331,-15 -12.14417,0 -22.86798,3.12213 -29.66669,14 -5.90551,9.44879 -5.4342,24.28436 -7.66665,35 -5.31583,25.51569 -9.02762,51.42792 -14,77 -5.75171,29.58008 -10.25083,59.43286 -16,89 -4.5138,23.21375 -9.4159,46.59436 -12.66666,70 -2.09418,15.07806 -5.90796,29.93726 -8,45 -0.87415,6.29395 -3.18921,12.55157 -1.66666,19 2.65931,11.26294 12.92401,21.41211 21.66666,28.33337 22.87674,18.11072 51.73584,30.82154 81,33.66663 50.59216,4.91864 96.04297,-15.82568 135,-46.66663 6.86505,-5.43481 13.18518,-11.51031 20,-17 3.38153,-2.72406 9.01227,-6.41815 11,-10.33337 2.16559,-4.2655 2.3443,-11.27917 3,-16 1.38593,-9.9787 3.41272,-20.12268 5.33331,-30 7.27558,-37.41748 15.42334,-75.24854 20.66669,-113 4.16077,-29.95728 10.5567,-60.29144 16.33331,-90 1.48548,-7.63953 2.51984,-15.3877 4,-23 0.97254,-5.00153 2.40607,-9.85095 1.33338,-15 C 776.20154,490.16736 764.56653,485.94653 754,484 M 370,639 c -16.13043,0 -32.04968,-3.22766 -48,-5 C 284.17337,629.79694 243.69878,616.40778 211,597.33331 191.0195,585.67792 171.38025,571.26752 158,552 c -13.03172,-18.76569 -21.62265,-38.48804 -26,-61 -1.02721,-5.28278 -5.01398,-17.72351 0,-21.83331 6.00876,-4.92523 14.72237,4.55414 19,8 15.9632,12.85925 33.31477,24.18353 51,34.5 30.72057,17.92047 63.73059,30.06183 97,43 9.88443,3.84393 20.75278,7.15356 31,10 7.03583,1.9544 15.48834,4.41229 21,9.5 11.48947,10.60565 9.45569,30.87378 13.33334,44.83331 1.82737,6.57855 5.48542,13.11243 5.66666,20 m 520,2 c 4.29425,-11.65588 9.10931,-22.77063 12.16669,-35 2.22894,-8.91577 2.94238,-19.10907 9.83331,-26 6.0105,-6.0105 15.10706,-8.14081 23,-10.33331 l 32,-9 c 35.1688,-9.76905 68.3527,-26.69123 100,-43.83338 17.6157,-9.54181 34.2205,-21.89367 50,-34.16662 3.8977,-3.0315 12.3805,-11.84595 17.8334,-6.5 4.6108,4.52044 -0.3423,16.62372 -1.5,21.83331 -4.8329,21.74811 -14.4544,42.26746 -28,60 -16.7189,21.88666 -39.1468,37.07336 -63.3334,49.16669 C 995.0802,630.62659 942.26471,641 890,641 M 682,571 675.33331,608 666,661 645,657.33331 605,649.66669 587,646 l 4,-24 8,-47 83,-4 m -93,5 -6.33331,35 L 577,644 521,633 528,594 531.16669,578.5 544,577.83331 589,576 m -212,76 6.83334,14 16.5,24 L 411,703 c -13.27301,5.93787 -29.51108,9.39008 -44,11 -15.92188,1.76917 -32.80844,3.57422 -49,2 -33.66049,-3.27258 -66.61801,-15.58112 -93,-36.83331 C 206.21927,664.03772 193.68298,644.49011 183.83333,623 c -2.45326,-5.35254 -9.76554,-18.63776 -3.66666,-23.66669 4.37187,-3.60492 10.04787,1.34442 13.83333,3.5 11.4133,6.49921 22.89558,12.78992 35,17.83338 C 275.89771,640.20715 326.08051,652 377,652 m 470,54 c 1.5127,-5.22565 7.35944,-9.90436 11,-14 5.7019,-6.41461 11.18707,-13.66968 15.66669,-21 2.65014,-4.33661 6.19873,-13.83026 10.5,-16.5 2.68139,-1.66431 8.74554,-0.5 11.83331,-0.5 9.72443,0 19.37994,-0.0647 29,-1 32.4314,-3.15314 65.45428,-10.45441 96,-22.33331 16.1985,-6.29944 31.7612,-13.79077 47,-21.83338 4.3627,-2.30249 12.9547,-9.83795 17.8334,-4.66662 4.5006,4.77069 -1.5718,15.26239 -3.6668,19.83331 -8.8536,19.31738 -19.9386,37.82019 -36.1666,52.16669 -38.097,33.67999 -91.96436,46.698 -142,41.83331 -13.05658,-1.26941 -26.21545,-3.63721 -39,-6.83331 -6.02368,-1.50592 -11.89648,-4.0423 -18,-5.16669 M 575,654 567.33331,697 562,726 509,704 516.66669,660 520,643 l 55,11 m 89,18 -9.33331,52 -6.66669,37 -56,-22.83331 -15,-6 -4.5,-2.33338 L 575,712 585,656 641,667.33331 664,672 m -245,41.16669 c 4.06723,-0.45191 7.06522,3.17663 10,5.5 6.68726,5.29406 13.33472,10.64898 20,16 2.88361,2.315 6.05081,5.18091 4.66666,9.33331 -1.97,5.90997 -8.20014,10.15381 -12.66666,14 -13.28625,11.44098 -31.39777,19.2887 -49,21 -37.56152,3.65179 -74.84399,-7.54968 -105,-30.16663 -8.1123,-6.08422 -15.48599,-12.74231 -21.66666,-20.83337 -1.74237,-2.28094 -5.5043,-6.98755 -3,-9.83331 2.5178,-2.86115 7.85321,-0.1045 10.66666,0.83331 10.12796,3.37598 20.57404,5.63947 31,7.66669 24.16135,4.698 51.04556,2.99048 75,-2 8.36252,-1.74219 16.85599,-4.06513 25,-6.66669 4.76602,-1.52246 10.02844,-4.28094 15,-4.83331 m 417,2 c 3.55524,-0.69129 11.42584,3.30859 15,4.5 10.43658,3.47888 21.22021,5.90393 32,8 27.18726,5.28637 56.8847,4.7724 84,-0.5 10.53485,-2.0484 20.64105,-5.26636 31,-8 2.7421,-0.72364 7.207,-3.29309 9.6667,-0.83338 2.4899,2.48987 -0.082,6.34656 -1.5,8.66669 -3.9314,6.43323 -9.82063,11.72815 -15.1667,17 -21.69366,21.3924 -52.73596,34.16357 -82,40.66663 -33.07745,7.35058 -73.40662,5.34051 -103,-12.33326 -7.21948,-4.31164 -18.5351,-9.40356 -22.5,-17.33337 -2.74237,-5.48474 4.87598,-8.02136 8.5,-9.83337 11.29871,-5.6493 21.83868,-12.87897 32,-20.49994 3.27112,-2.45337 8.08154,-8.73804 12,-9.5"
       id="path1" />
  </g>
</svg>
